<svg display="none" xmlns="http://www.w3.org/2000/svg">
    <symbol id="logo" viewBox="0 0 40 40">
        <g clip-path="url(#clip0_4_42)">
            <path d="M9.33879 14.7235L4.07221 19.9901L9.33879 25.2566L14.6054 19.9901L9.33879 14.7235Z" fill="#D7B399"/>
            <path d="M19.9944 4.08541L14.7278 9.35199L19.9944 14.6186L25.261 9.35199L19.9944 4.08541Z" fill="#D7B399"/>
            <path d="M19.9914 25.3938L14.7248 30.6604L19.9913 35.927L25.2579 30.6604L19.9914 25.3938Z" fill="#D7B399"/>
            <path d="M30.647 14.7266L25.3804 19.9932L30.647 25.2597L35.9136 19.9932L30.647 14.7266Z" fill="#D7B399"/>
            <path d="M28.6102 12.6866L23.3436 17.9532L25.3828 19.9923L30.6494 14.7258L28.6102 12.6866Z" fill="#D7B399"/>
            <path d="M17.9547 23.3532L12.6881 28.6198L14.7273 30.659L19.9938 25.3924L17.9547 23.3532Z" fill="#D7B399"/>
            <path d="M25.2587 9.35299L19.9921 14.6196L22.0313 16.6587L27.2978 11.3921L25.2587 9.35299Z" fill="#D7B399"/>
            <path d="M14.6177 20.0053L9.35116 25.2719L11.3903 27.311L16.6569 22.0444L14.6177 20.0053Z" fill="#D7B399"/>
            <path d="M11.3788 12.6864L9.33961 14.7256L14.6062 19.9922L16.6453 17.953L11.3788 12.6864Z" fill="#D7B399"/>
            <path d="M14.727 9.34953L12.6879 11.3887L17.9544 16.6552L19.9936 14.6161L14.727 9.34953Z" fill="#D7B399"/>
            <path d="M25.3796 19.9905L23.3405 22.0296L28.607 27.2962L30.6462 25.257L25.3796 19.9905Z" fill="#D7B399"/>
            <path d="M22.046 23.342L20.0069 25.3812L25.2734 30.6477L27.3126 28.6086L22.046 23.342Z" fill="#D7B399"/>
            <path d="M27.3029 32.6971L25.2697 30.6639L20 35.9336L14.7303 30.6639L12.6971 32.6971L20 40L27.3029 32.6971Z" fill="#D7B399"/>
            <path d="M9.3361 14.7303L7.3029 12.6971L0 20L7.3029 27.3029L9.3361 25.2697L4.06639 20L9.3361 14.7303Z" fill="#D7B399"/>
            <path d="M32.6971 12.6971L30.6639 14.7303L35.9336 20L30.6639 25.2697L32.6971 27.3029L40 20L32.6971 12.6971Z" fill="#D7B399"/>
            <path d="M25.2697 9.3361L27.3029 7.3029L20 0L12.6971 7.3029L14.7303 9.3361L20 4.06639L25.2697 9.3361Z" fill="#D7B399"/>
        </g>
    </symbol>
    <symbol id="basket" viewBox="0 0 30 30">
        <path d="M22.2936 11.4909L16.2385 2.40831C15.9632 2.13308 15.5505 1.85785 15.1376 1.85785C14.7248 1.85785 14.3119 1.99546 14.0367 2.40831L7.98165 11.4909H1.37615C0.550459 11.4909 0 12.0413 0 12.867C0 13.0046 0 13.1423 0 13.2799L3.44037 26.078C3.7156 27.179 4.81651 28.1423 6.05505 28.1423H23.945C25.1835 28.1423 26.2844 27.3166 26.5596 26.078L30 13.2799C30 13.1423 30 13.0046 30 12.867C30 12.0413 29.4495 11.4909 28.6239 11.4909H22.2936ZM11.0092 11.4909L15.1376 5.43583L19.2661 11.4909H11.0092ZM15.1376 22.5001C13.6239 22.5001 12.3853 21.2615 12.3853 19.7478C12.3853 18.234 13.6239 16.9955 15.1376 16.9955C16.6514 16.9955 17.8899 18.234 17.8899 19.7478C17.8899 21.2615 16.6514 22.5001 15.1376 22.5001Z" fill="#212121"/>
    </symbol>
    <symbol id="arrow" viewBox="0 0 21 8">
        <path d="M20.3536 4.35356C20.5488 4.15829 20.5488 3.84171 20.3536 3.64645L17.1716 0.464468C16.9763 0.269205 16.6597 0.269205 16.4645 0.464468C16.2692 0.65973 16.2692 0.976312 16.4645 1.17157L19.2929 4L16.4645 6.82843C16.2692 7.02369 16.2692 7.34027 16.4645 7.53554C16.6597 7.7308 16.9763 7.7308 17.1716 7.53554L20.3536 4.35356ZM-4.37114e-08 4.5L20 4.5L20 3.5L4.37114e-08 3.5L-4.37114e-08 4.5Z" fill="white"/>
    </symbol>
</svg>